<?xml version="1.0" encoding="UTF-8"?>
<!DOCTYPE svg PUBLIC "-//W3C//DTD SVG 1.1//EN" "http://www.w3.org/Graphics/SVG/1.1/DTD/svg11.dtd">
<!-- Creator: CorelDRAW 2017 -->
<svg xmlns="http://www.w3.org/2000/svg" xml:space="preserve" width="70mm" height="70.0016mm" version="1.1" style="shape-rendering:geometricPrecision; text-rendering:geometricPrecision; image-rendering:optimizeQuality; fill-rule:evenodd; clip-rule:evenodd"
viewBox="0 0 11036 11037"
 xmlns:xlink="http://www.w3.org/1999/xlink">
 <defs>
  <style type="text/css">
   <![CDATA[
    .fil1 {fill:#FEFEFE;fill-rule:nonzero}
    .fil0 {fill:#009846;fill-rule:nonzero}
   ]]>
  </style>
 </defs>
 <g id="Layer_x0020_1">
  <metadata id="CorelCorpID_0Corel-Layer"/>
  <g id="_2504163949984">
   <path class="fil0" d="M5518 0c-3043,0 -5518,2475 -5518,5518 0,3043 2475,5518 5518,5518 3043,0 5518,-2475 5518,-5518 0,-3043 -2475,-5518 -5518,-5518z"/>
   <g>
    <path class="fil1" d="M5549 718c-203,-1 -406,60 -579,185l-488 352c-169,122 -373,187 -581,185l-601 -6c-426,-4 -806,268 -939,672l-188 571c-65,198 -192,371 -362,492l-490 348c-347,247 -494,690 -364,1095l184 573c64,199 62,412 -4,610l-191 570c-136,404 5,848 349,1100l485 355c168,123 293,297 356,496l180 574c128,406 504,683 930,685l601 1c209,1 411,68 579,193l483 358c342,254 809,257 1155,8l488 -352c169,-122 373,-187 581,-185l601 6c426,4 806,-268 939,-672l187 -571c65,-198 192,-371 362,-492l490 -348c347,-247 494,-690 363,-1095l-184 -573c-64,-199 -63,-412 4,-610l191 -570c136,-404 -5,-849 -349,-1100l-485 -355c-168,-123 -294,-297 -356,-496l-180 -574c-128,-406 -504,-683 -930,-685l-601 -2c-209,-1 -411,-68 -579,-192l-483 -358c-171,-127 -373,-191 -576,-193l0 0zm-9 1473c1835,12 3319,1515 3307,3350 -12,1834 -1515,3319 -3350,3307 -1835,-12 -3319,-1516 -3307,-3351 12,-1835 1515,-3318 3350,-3306z"/>
    <path class="fil1" d="M4352 7138c-37,-2 -73,-21 -95,-51 -22,-30 -30,-70 -21,-106l303 -1234 -960 -833c-38,-33 -53,-88 -37,-136 16,-47 61,-83 111,-86l1267 -93 496 -1170c19,-46 68,-78 118,-77 50,0 98,33 116,79l481 1176 1265 110c50,4 95,40 110,88 15,47 -1,103 -39,135l-970 820 287 1237c11,48 -9,103 -50,132 -40,29 -98,31 -141,5l-1080 -669 -1088 655c-22,13 -47,20 -73,18z"/>
   </g>
  </g>
 </g>
</svg>
