<?xml version="1.0" encoding="UTF-8"?>
<!DOCTYPE svg PUBLIC "-//W3C//DTD SVG 1.1//EN" "http://www.w3.org/Graphics/SVG/1.1/DTD/svg11.dtd">
<!-- Creator: CorelDRAW 2017 -->
<svg xmlns="http://www.w3.org/2000/svg" xml:space="preserve" width="42.8684mm" height="42.8684mm" version="1.1" style="shape-rendering:geometricPrecision; text-rendering:geometricPrecision; image-rendering:optimizeQuality; fill-rule:evenodd; clip-rule:evenodd"
viewBox="0 0 694 694"
 xmlns:xlink="http://www.w3.org/1999/xlink">
 <defs>
  <style type="text/css">
   <![CDATA[
    .fil1 {fill:#2B2A29}
    .fil0 {fill:#2B2A29;fill-rule:nonzero}
   ]]>
  </style>
 </defs>
 <g id="icons">
  <metadata id="CorelCorpID_0Corel-Layer"/>
  <g id="_1571130119056">
   <path class="fil0" d="M16 0l677 0 0 694 -694 0 0 -694 16 0zm645 32l-629 0 0 629 629 0 0 -629z"/>
   <path class="fil1" d="M273 419c37,-54 72,-96 99,-126 56,-62 89,-86 98,-92 0,0 44,-31 88,-48 1,0 2,-1 4,-1 5,0 10,3 13,6 -3,3 -6,6 -11,11 -8,8 -15,14 -16,15 -50,47 -91,96 -91,96 0,0 -47,55 -86,116 -5,7 -9,14 -9,14 -9,15 -14,25 -53,88 -15,25 -28,47 -37,60 -3,0 -6,0 -9,0 -7,-11 -25,-43 -40,-78 0,0 -22,-54 -42,-80 -2,-2 -5,-6 -11,-9 -10,-5 -21,-4 -26,-3 0,-3 1,-7 3,-11 8,-18 30,-28 48,-28 34,0 58,38 69,54 4,7 7,12 9,17z"/>
  </g>
 </g>
</svg>
