<?xml version="1.0" encoding="UTF-8"?>
<!DOCTYPE svg PUBLIC "-//W3C//DTD SVG 1.1//EN" "http://www.w3.org/Graphics/SVG/1.1/DTD/svg11.dtd">
<!-- Creator: CorelDRAW 2017 -->
<svg xmlns="http://www.w3.org/2000/svg" xml:space="preserve" width="5.7606mm" height="8.0043mm" version="1.1" style="shape-rendering:geometricPrecision; text-rendering:geometricPrecision; image-rendering:optimizeQuality; fill-rule:evenodd; clip-rule:evenodd"
viewBox="0 0 576 800"
 xmlns:xlink="http://www.w3.org/1999/xlink">
 <defs>
  <style type="text/css">
   <![CDATA[
    .fil0 {fill:#E31E24}
   ]]>
  </style>
 </defs>
 <g id="Ñëîé_x0020_1">
  <metadata id="CorelCorpID_0Corel-Layer"/>
  <path class="fil0" d="M288 393c-70,0 -127,-54 -127,-121 0,-67 57,-121 127,-121 70,0 127,54 127,121 0,67 -57,121 -127,121zm0 -393c-159,0 -288,122 -288,272 0,34 7,67 19,97l0 0c2,5 4,9 6,14l263 417 255 -401c9,-15 16,-31 21,-48l0 0c8,-25 12,-52 12,-79 0,-150 -129,-272 -288,-272z"/>
 </g>
</svg>
