<?xml version="1.0" encoding="UTF-8"?>
<!DOCTYPE svg PUBLIC "-//W3C//DTD SVG 1.1//EN" "http://www.w3.org/Graphics/SVG/1.1/DTD/svg11.dtd">
<!-- Creator: CorelDRAW 2017 -->
<svg xmlns="http://www.w3.org/2000/svg" xml:space="preserve" width="4.9067mm" height="3.7649mm" version="1.1" style="shape-rendering:geometricPrecision; text-rendering:geometricPrecision; image-rendering:optimizeQuality; fill-rule:evenodd; clip-rule:evenodd"
viewBox="0 0 990 759"
 xmlns:xlink="http://www.w3.org/1999/xlink">
 <defs>
  <style type="text/css">
   <![CDATA[
    .fil0 {fill:#ffffff}
   ]]>
  </style>
 </defs>
 <g id="Ñëîé_x0020_1">
  <metadata id="CorelCorpID_0Corel-Layer"/>
  <g id="_2504100717040">
   <path class="fil0" d="M990 627c0,22 -6,42 -16,60l-313 -350 309 -270c12,19 19,42 19,66l0 495z"/>
   <path class="fil0" d="M506 401l440 -385c-18,-10 -38,-16 -60,-16l-759 0c-22,0 -42,6 -60,16l440 385z"/>
   <path class="fil0" d="M629 378l-102 89c-6,5 -13,8 -21,8 -7,0 -15,-3 -21,-8l-102 -89 -324 362c19,12 42,19 67,19l759 0c25,0 47,-7 67,-19l-324 -362z"/>
   <path class="fil0" d="M20 59c-12,20 -20,42 -20,67l0 506c0,22 6,43 16,61l320 -358 -316 -277z"/>
  </g>
 </g>
</svg>
