<?xml version="1.0" encoding="UTF-8"?>
<!DOCTYPE svg PUBLIC "-//W3C//DTD SVG 1.1//EN" "http://www.w3.org/Graphics/SVG/1.1/DTD/svg11.dtd">
<!-- Creator: CorelDRAW 2017 -->
<svg xmlns="http://www.w3.org/2000/svg" xml:space="preserve" width="4.5974mm" height="4.1738mm" version="1.1" style="shape-rendering:geometricPrecision; text-rendering:geometricPrecision; image-rendering:optimizeQuality; fill-rule:evenodd; clip-rule:evenodd"
viewBox="0 0 26 23"
 xmlns:xlink="http://www.w3.org/1999/xlink">
 <defs>
  <style type="text/css">
   <![CDATA[
    .fil0 {fill:#ffffff}
   ]]>
  </style>
 </defs>
 <g id="Ñëîé_x0020_1">
  <metadata id="CorelCorpID_0Corel-Layer"/>
  <g id="_2504091408464">
   <path class="fil0" d="M26 6c0,1 0,2 0,2 0,1 -1,1 -3,1 -2,0 -2,0 -3,-1 0,-1 0,-1 0,-2 -1,-2 -3,-4 -7,-4 -3,0 -5,1 -6,3 0,0 0,1 0,1 0,0 0,2 0,2 0,1 -1,1 -3,1 -2,0 -3,0 -3,-1 0,-1 0,-2 0,-2 0,0 0,-1 0,-1 0,-1 1,-2 2,-2 1,-1 2,-1 3,-2 2,-1 5,-1 8,-1 3,0 5,0 8,1 1,0 2,1 3,2 1,1 2,2 2,3z"/>
   <path class="fil0" d="M23 23c-7,0 -13,0 -20,0 -1,0 -1,-1 -1,-3 0,-1 0,-2 0,-2 0,-1 1,-2 1,-3 1,-2 2,-3 3,-4 0,-1 1,-2 2,-2 0,0 1,0 1,0 0,-1 0,-2 0,-2 0,-1 1,-1 2,-1 1,0 1,0 1,1 0,1 0,1 0,2 1,0 2,0 3,0 0,-1 0,-2 0,-2 0,-1 1,-1 2,-1 1,0 1,1 1,1 0,1 0,1 0,2 2,0 2,1 3,2 1,2 2,3 3,5 0,1 1,2 1,3 0,1 0,1 0,2 0,1 0,2 0,2 0,0 -1,1 -1,1zm-14 -9l0 0c0,0 -1,2 -1,3 0,4 4,6 8,4 1,-1 2,-2 2,-4 0,-1 0,-2 -1,-3 -1,-1 -2,-2 -4,-2 -2,0 -3,1 -4,2z"/>
   <path class="fil0" d="M12 14c2,0 3,1 4,3 0,2 -1,3 -3,4 -2,0 -4,-1 -4,-3 0,-1 0,-1 1,-2 0,-1 1,-1 2,-1z"/>
  </g>
 </g>
</svg>
