<?xml version="1.0" encoding="UTF-8"?>
<!DOCTYPE svg PUBLIC "-//W3C//DTD SVG 1.1//EN" "http://www.w3.org/Graphics/SVG/1.1/DTD/svg11.dtd">
<!-- Creator: CorelDRAW 2017 -->
<svg xmlns="http://www.w3.org/2000/svg" xml:space="preserve" width="69.9999mm" height="70.0002mm" version="1.1" style="shape-rendering:geometricPrecision; text-rendering:geometricPrecision; image-rendering:optimizeQuality; fill-rule:evenodd; clip-rule:evenodd"
viewBox="0 0 2783 2783"
 xmlns:xlink="http://www.w3.org/1999/xlink">
 <defs>
  <style type="text/css">
   <![CDATA[
    .fil0 {fill:#FEFEFE}
    .fil1 {fill:#EF7F1A;fill-rule:nonzero}
   ]]>
  </style>
 </defs>
 <g id="Layer_x0020_1">
  <metadata id="CorelCorpID_0Corel-Layer"/>
  <g id="_2504214105408">
   <circle class="fil0" cx="1369" cy="1413" r="1281"/>
   <g>
    <path class="fil1" d="M1392 2509c-616,0 -1117,-501 -1117,-1117 0,-616 501,-1117 1117,-1117 616,0 1117,501 1117,1117 0,616 -501,1117 -1117,1117zm0 -2509c-774,0 -1392,629 -1392,1392 0,774 629,1392 1392,1392 774,0 1392,-629 1392,-1392 0,-774 -623,-1392 -1392,-1392z"/>
    <path class="fil1" d="M1392 442c-524,0 -950,426 -950,950 0,524 426,950 950,950 524,0 950,-426 950,-950 0,-524 -426,-950 -950,-950z"/>
   </g>
   <path class="fil0" d="M1974 1279c10,-42 -60,-134 -149,-139 -90,-5 -267,5 -285,-5 -19,-10 -5,-89 73,-246 60,-138 -36,-264 -96,-262 -60,3 -72,2 -72,2 0,0 7,236 -66,278 -35,20 -100,83 -116,123 -16,40 -123,228 -234,293 -2,174 0,531 0,531 0,0 342,76 522,76 180,0 301,-39 319,-115 19,-76 -10,-78 19,-105 28,-26 55,-39 55,-84 -5,-44 -44,-83 -13,-115 32,-31 40,-92 10,-126 -28,-32 24,-65 34,-107l0 0zm-990 511c0,50 -40,90 -90,90l-12 0c-50,0 -90,-40 -90,-90l0 -396c0,-50 40,-90 90,-90l12 0c50,0 90,40 90,90l0 396z"/>
  </g>
 </g>
</svg>
