<?xml version="1.0" encoding="UTF-8"?>
<!DOCTYPE svg PUBLIC "-//W3C//DTD SVG 1.1//EN" "http://www.w3.org/Graphics/SVG/1.1/DTD/svg11.dtd">
<!-- Creator: CorelDRAW 2017 -->
<svg xmlns="http://www.w3.org/2000/svg" xml:space="preserve" width="70.0001mm" height="70.0004mm" version="1.1" style="shape-rendering:geometricPrecision; text-rendering:geometricPrecision; image-rendering:optimizeQuality; fill-rule:evenodd; clip-rule:evenodd"
viewBox="0 0 2731 2731"
 xmlns:xlink="http://www.w3.org/1999/xlink">
 <defs>
  <style type="text/css">
   <![CDATA[
    .fil0 {fill:#FEFEFE}
    .fil1 {fill:#CB5499;fill-rule:nonzero}
   ]]>
  </style>
 </defs>
 <g id="Layer_x0020_1">
  <metadata id="CorelCorpID_0Corel-Layer"/>
  <g id="_2504406216608">
   <circle class="fil0" cx="1344" cy="1387" r="1257"/>
   <g>
    <path class="fil1" d="M1366 2462c-605,0 -1097,-492 -1097,-1097 0,-605 492,-1097 1097,-1097 605,0 1097,492 1097,1097 0,605 -492,1097 -1097,1097zm0 -2462c-760,0 -1366,618 -1366,1366 0,760 617,1366 1366,1366 760,0 1366,-617 1366,-1366 0,-760 -612,-1366 -1366,-1366z"/>
    <path class="fil1" d="M1366 434c-514,0 -932,418 -932,932 0,514 418,932 932,932 514,0 932,-418 932,-932 0,-514 -418,-932 -932,-932z"/>
   </g>
   <polygon class="fil0" points="2152,702 2328,1048 1381,1991 661,1283 916,1011 1368,1451 "/>
  </g>
 </g>
</svg>
